# xmcd
#
# Track frame offsets: 
#        150
#        17905
#        30007
#        47907
#        62902
#        77607
#        91447
#        106120
#        120315
#        137435
#
# Disc length: 2037 seconds
#
# Revision: 0
# Processed by: cddbd v1.5.1PL0 Copyright (c) Steve Scherf et al.
# Submitted via: ExactAudioCopy v0.95a4
#
DISCID=6f07f30a
DTITLE=Dolly Parton - Super Hits II
DYEAR=1999
DGENRE=Country
TTITLE0=Real Love
TTITLE1=The Bargain Store
TTITLE2=Starting Over Again
TTITLE3=Don't Call It Love
TTITLE4=It's All Wrong, But It's All Right
TTITLE5=Coat Of Many Colors
TTITLE6=The Seeker
TTITLE7=I Really Got The Feeling
TTITLE8=Save The Last Dance For Me
TTITLE9=Old Flames Can't Hold A Candle To You
EXTD=
EXTT0=
EXTT1=
EXTT2=
EXTT3=
EXTT4=
EXTT5=
EXTT6=
EXTT7=
EXTT8=
EXTT9=
PLAYORDER=
